/* XPM */
static char * square_xpm[] = {
"16 16 2 1",
" 	c None",
".	c black",
"                ",
"                ",
"  ...  ..  ...  ",
"  .          .  ",
"  .          .  ",
"                ",
"                ",
"  .          .  ",
"  .          .  ",
"                ",
"                ",
"  .          .  ",
"  .          .  ",
"  ...  ..  ...  ",
"                ",
"                "};
